<?xml version="1.0" encoding="utf-8"?>
<!-- Designed by Vexels.com - 2017 All Rights Reserved - https://vexels.com/terms-and-conditions/  -->

<svg version="1.1" id="Layer_1" xmlns="http://www.w3.org/2000/svg" xmlns:xlink="http://www.w3.org/1999/xlink" x="0px" y="0px"
	 width="1200px" height="1200px" viewBox="0 0 1200 1200" enable-background="new 0 0 1200 1200" xml:space="preserve">
<g>
	<path fill="#282727" d="M1024.843,183.463c-2.376-3.301-5.21-8.034-9.475-12.289c-4.246-4.276-14.179-9.933-18.922-15.611
		c-4.734-5.668-11.356-1.422-16.088-2.367c-4.743-0.944-20.821-4.733-26.965-4.733c-6.175,0-11.375,0-19.897-3.321
		c-8.512-3.32-2.357-6.622-12.31-9.943c-9.923-3.311-47.787-2.824-55.831-2.367c-8.054,0.478-26.499,4.276-35.507,7.1
		c-8.969,2.844-12.767,6.165-20.812,8.044c-8.064,1.919-13.721-4.245-19.866-5.2c-6.175-0.954-16.098,1.432-24.152,4.733
		c-8.045,3.302-13.712,2.387-27.453,3.302c-13.722,0.954-28.378-1.869-28.378-1.869c6.612-3.799,11.832-22.73,10.877-38.342
		c-0.944-15.63-8.054-28.865-28.387-47.329c-20.364-18.465-60.117-13.717-79.049-9.004c-18.922,4.753-24.142,44.501-24.142,44.501
		c-8.034-1.421-30.754,0-30.754,0c-7.1,7.1,20.821,16.088,20.821,16.088l-6.632,2.844c-14.188-4.256-63.875-5.677-72.406-6.165
		c-8.511-0.457-9.933,0-18.922,3.789c-8.999,3.808-18.455,3.311-24.62,6.165c-6.145,2.823-13.711,7.09-17.977,8.044
		c-4.255,0.945-30.287-0.954-34.543-0.954c-4.255,0-13.254-2.366-15.143-8.989c-1.889-6.643-2.376-3.778-7.576-5.678
		c-5.2-1.889-8.988-1.411-13.731-2.376c-4.723-0.935-14.657-10.4-18.922-16.087c-4.266-5.673-9.954-8.502-15.154-10.411
		c-5.201-1.889-4.723,0.483-13.722-2.839c-8.978-3.311-12.777-8.04-18.455-7.567c-5.677,0.467-15.143-4.732-22.72-6.622
		c-7.567-1.889-24.61,1.422-29.81,2.84c-5.2,1.411-12.3,1.411-21.765,0.462c-9.466-0.93-15.611,2.371-18.942,4.748
		c-3.301,2.361-7.567,5.677-14.189,10.887c-6.631,5.191-13.721,20.334-16.087,26.001c-2.376,5.688-6.165,24.163-6.165,24.163
		c-4.246,17.032,7.1,6.622,7.1,6.622c-1.412,7.079,4.743,4.733,4.743,4.733c6.622,6.622,14.199-3.321,16.097-13.722
		c1.88-10.43,11.833-18.474,11.833-18.474c8.033-1.412,11.345,5.22,11.345,5.22c-8.044,14.188,8.044,15.143,14.199,12.319
		c6.155-2.863,3.302-1.918,4.733,0.438c1.421,2.387,4.256,6.185,9.456,10.908c5.22,4.743,20.831,13.234,32.653,19.877
		c11.842,6.621,21.766,12.786,32.674,15.153c10.878,2.367,17.51,12.767,21.288,14.657c3.789,1.889,9.466,0,17.033,5.688
		c7.576,5.667,20.831,27.443,27.453,29.809c6.631,2.366,8.999-0.478,16.555,2.366c7.577,2.835,5.688,11.823,4.744,19.399
		c-0.945,7.577-1.89,24.132-3.321,28.875c-1.422,4.723-7.09,8.989-10.401,14.667c-3.321,5.688-19.876,21.288-24.62,27.921
		c-4.722,6.631-4.722,15.153-6.612,27.462c-1.889,12.291,1.412,26.489,2.357,29.81c0.954,3.301,2.853,7.566,0.954,13.721
		c-1.899,6.145-9.475,7.557-15.154,8.989c-5.677,1.412-3.778,5.668-4.722,11.356c-0.955,5.677,0.944,17.52,6.145,27.921
		c5.2,10.41,8.054,10.898,5.677,11.832c-2.366,0.954-0.935,3.778-1.889,8.054c-0.935,4.255-2.835,16.088-3.311,19.409
		c-0.478,3.301,4.265,6.125,4.265,6.125c-2.376,3.33-8.531-3.301-2.376,34.562c6.145,37.864,37.864,51.585,50.164,56.795
		c12.3,5.211,18.931,4.723,25.553,15.134c6.622,10.42,35.975,26.508,35.975,26.508c-7.566,9.009-24.609,67.674-24.609,67.674
		c-5.21-1.89-14.189,8.978-19.866,8.531c-5.688-0.478-17.053,0.935-18.475,0.447c-1.421-0.447-15.133-2.823-22.7-2.356
		c-7.576,0.477-8.531,3.798-11.375,15.153c-2.834,11.356,4.744,25.077,9.476,35.498c4.723,10.401,8.511,12.777,13.245,30.277
		c4.733,17.51,14.676,50.164,14.676,50.164l-8.999,17.042c-4.723,4.265-19.399,4.733-22.711,26.986
		c-3.32,22.243,36.442,33.121,43.542,35.478c7.1,2.386,21.766,0.954,44.476,13.721c22.72,12.787,57.282,14.686,63.428,13.265
		c6.145-1.412,7.099-7.577,8.033-25.554c0.945-17.987-24.132-27.921-24.132-27.921c-2.376-7.109-9.466-23.187-8.054-30.297
		c1.432-7.09,8.531-9.933,13.254-20.334c4.753-10.42-0.477-18.952,0-26.051c0.477-7.079,2.854-7.556,5.687-15.123
		c2.835-7.576,2.367-39.286,3.311-41.652c0.955-2.366,9.476-2.844,14.676-5.677c5.201-2.835,24.609-5.211,29.333-6.155
		c4.724-0.955,35.03-2.844,56.795-3.799c21.776-0.935,67.206-15.611,70.518-19.389c3.321-3.779,14.198-15.154,15.621-21.298
		c1.412-6.164,1.412-14.199-4.734-36.918c-6.164-22.7-49.218-70.995-61.518-84.726c-12.301-13.702-47.808-42.577-62.96-53.932
		c-15.124-11.355-13.234-18.932-19.389-28.408c-6.165-9.456-5.211-18.444-4.266-23.665c0.955-5.2,9.456-13.234,19.41-26.021
		c9.933-12.767,12.3-26.986,13.711-34.543c1.422-7.577,8.064-17.042,8.999-21.298c0.945-4.256,5.688-8.511,9.944-14.676
		c4.246-6.145,8.989-17.977,14.199-26.509c5.201-8.512,16.078-32.196,18.455-38.332c2.357-6.155,6.165-8.999,7.1-15.144
		c0.945-6.145,0.478-9.466,9.923-15.611c9.476-6.165,23.675,8.511,26.041,6.622c2.376-1.889,18.932-8.989,21.766-12.31
		c2.854-3.311-0.478-3.311-0.954-6.145c-0.458-2.854,2.376-5.688,11.842-6.632c9.465-0.944,6.642,0,16.565-1.899
		c9.933-1.889,4.732-2.823,9.933-7.09c5.22-4.265,4.265-2.376,14.219-3.301c9.923-0.964,11.355,1.402,17.977-1.442
		c6.622-2.823,17.5-3.301,24.599-5.191c7.1-1.909,18.932-4.733,28.876-5.677c9.942-0.945,30.287-6.632,35.954-9.475
		c5.688-2.844,6.155-3.789,13.264-2.844c7.09,0.954,7.567,1.909,11.356,0.954c3.788-0.954,5.688-3.789,11.355-6.622
		c5.688-2.844,12.31-1.432,19.41,0c7.099,1.422,7.099,3.799,12.776,5.21c5.678,1.412,17.53-1.411,25.554-1.411
		c8.044,0,13.722,1.411,20.821,1.411c7.11,0,13.732,1.89,17.043,3.302c3.311,1.421,13.244,0.954,17.51,0.954
		c4.256,0,2.834-3.798,2.834-3.798s1.899,2.386,6.155,5.21c4.265,2.844,8.044-6.632,7.576-8.512c-0.457-1.889,0-5.21,1.412-10.42
		C1030.998,195.783,1027.211,186.784,1024.843,183.463z M572.279,675.572c-5.329-13.522-27.493-7.378-27.493-7.378l7.378-14.357
		C582.947,661.234,572.279,675.572,572.279,675.572z"/>
	<path fill="#282727" d="M369.258,1026.031c0,0,241.034-120.523,294.747-162.433c0,0,68.11-44.546,87.768,27.503
		c0,0,14.407,61.569-27.512,100.863c0,0,11.793,18.346-32.753,22.273c0,0-171.591,85.145-183.393,93.009
		c0,0-3.917,23.585-31.441,19.648c0,0-68.121,31.441-106.094,20.971c0,0-57.64-43.243-37.993-82.539
		C332.588,1065.326,337.818,1040.448,369.258,1026.031z"/>
</g>
</svg>
